<?xml version="1.0" encoding="UTF-8" standalone="no"?>
<!DOCTYPE svg PUBLIC "-//W3C//DTD SVG 1.1//EN" "http://www.w3.org/Graphics/SVG/1.1/DTD/svg11.dtd">
<!-- Created with Vectornator (http://vectornator.io/) -->
<svg height="100%" stroke-miterlimit="10" style="fill-rule:nonzero;clip-rule:evenodd;stroke-linecap:round;stroke-linejoin:round;" version="1.1" viewBox="0 0 228.66 39.08" width="100%" xml:space="preserve" xmlns="http://www.w3.org/2000/svg" xmlns:vectornator="http://vectornator.io" xmlns:xlink="http://www.w3.org/1999/xlink">
<defs>
<clipPath id="TextBounds">
<rect height="32" width="205.488" x="15.4368" y="3.86003"/>
</clipPath>
</defs>
<g id="Untitled" vectornator:layerName="Untitled">
<g fill="#fed136" opacity="1" stroke="none">
<path clip-path="url(#TextBounds)" d="M28.7668 28.846C28.4375 29.5914 27.7701 29.964 26.7648 29.964C26.2621 29.964 25.8288 29.8687 25.4648 29.678C25.1008 29.4874 24.8235 29.184 24.6328 28.768L17.4048 12.726C17.3008 12.518 17.2488 12.3187 17.2488 12.128C17.2488 11.7467 17.4265 11.4477 17.7818 11.231C18.1371 11.0144 18.5921 10.906 19.1468 10.906C19.5455 10.906 19.8618 10.971 20.0958 11.101C20.3298 11.231 20.5075 11.426 20.6288 11.686L26.7128 25.96L33.0308 12.206C33.2735 11.7034 33.5335 11.361 33.8108 11.179C34.0881 10.997 34.4868 10.906 35.0068 10.906C35.5615 10.906 35.9558 10.997 36.1898 11.179C36.4238 11.361 36.6535 11.7034 36.8788 12.206L43.1708 25.96L49.4108 11.686C49.6361 11.166 50.1301 10.906 50.8928 10.906C51.4475 10.906 51.9025 11.0144 52.2578 11.231C52.6131 11.4477 52.7908 11.7467 52.7908 12.128C52.7908 12.3187 52.7388 12.518 52.6348 12.726L45.2508 28.768C44.8868 29.5654 44.1761 29.964 43.1188 29.964C42.6508 29.964 42.2391 29.8774 41.8838 29.704C41.5285 29.5307 41.2555 29.2447 41.0648 28.846L34.9288 15.482L28.7668 28.846Z" fill-rule="evenodd"/>
<path clip-path="url(#TextBounds)" d="M57.6268 28.742C57.6268 29.2447 57.4881 29.574 57.2108 29.73C56.9335 29.886 56.5175 29.964 55.9628 29.964C55.4081 29.964 54.9965 29.886 54.7278 29.73C54.4591 29.574 54.3248 29.2447 54.3248 28.742L54.3248 16.47C54.3248 15.9674 54.4591 15.638 54.7278 15.482C54.9965 15.326 55.4081 15.248 55.9628 15.248C56.5175 15.248 56.9335 15.326 57.2108 15.482C57.4881 15.638 57.6268 15.9674 57.6268 16.47L57.6268 28.742ZM53.9088 12.518C53.9088 11.9634 54.0691 11.556 54.3898 11.296C54.7105 11.036 55.2348 10.906 55.9628 10.906C56.6908 10.906 57.2151 11.036 57.5358 11.296C57.8565 11.556 58.0168 11.9634 58.0168 12.518C58.0168 13.0727 57.8565 13.48 57.5358 13.74C57.2151 14 56.6908 14.13 55.9628 14.13C55.2348 14.13 54.7105 14 54.3898 13.74C54.0691 13.48 53.9088 13.0727 53.9088 12.518Z" fill-rule="evenodd"/>
<path clip-path="url(#TextBounds)" d="M77.4908 12.128C77.4908 11.6254 77.6295 11.296 77.9068 11.14C78.1841 10.984 78.6001 10.906 79.1548 10.906C79.7095 10.906 80.1211 10.984 80.3898 11.14C80.6585 11.296 80.7928 11.6254 80.7928 12.128L80.7928 25.336C80.7928 28.352 78.3401 29.86 73.4348 29.86L67.1948 29.86C62.2895 29.86 59.8368 28.352 59.8368 25.336L59.8368 19.694C59.8368 16.678 62.2895 15.17 67.1948 15.17L77.4908 15.17L77.4908 12.128ZM67.2988 17.796C65.8428 17.796 64.7855 17.978 64.1268 18.342C63.4681 18.706 63.1388 19.1567 63.1388 19.694L63.1388 25.336C63.1388 25.856 63.4681 26.3024 64.1268 26.675C64.7855 27.0477 65.8428 27.234 67.2988 27.234L73.3308 27.234C74.7868 27.234 75.8441 27.0477 76.5028 26.675C77.1615 26.3024 77.4908 25.856 77.4908 25.336L77.4908 17.796L67.2988 17.796Z" fill-rule="evenodd"/>
<path clip-path="url(#TextBounds)" d="M100.267 26.87L100.267 16.288C100.267 15.7854 100.401 15.456 100.67 15.3C100.938 15.144 101.35 15.066 101.905 15.066C102.459 15.066 102.875 15.144 103.153 15.3C103.43 15.456 103.569 15.7854 103.569 16.288L103.569 29.626C103.569 31.134 102.992 32.2607 101.84 33.006C100.687 33.7514 99.0188 34.124 96.8348 34.124L93.2468 34.124C92.8481 34.124 92.5925 34.0114 92.4798 33.786C92.3671 33.5607 92.3108 33.2314 92.3108 32.798C92.3108 32.3647 92.3671 32.0397 92.4798 31.823C92.5925 31.6064 92.8481 31.498 93.2468 31.498L96.8348 31.498C98.1175 31.498 99.0101 31.3377 99.5128 31.017C100.015 30.6964 100.267 30.2327 100.267 29.626L100.267 29.496L90.3868 29.496C85.4815 29.496 83.0288 27.988 83.0288 24.972L83.0288 16.288C83.0288 15.7854 83.1631 15.456 83.4318 15.3C83.7005 15.144 84.1121 15.066 84.6668 15.066C85.2215 15.066 85.6375 15.144 85.9148 15.3C86.1921 15.456 86.3308 15.7854 86.3308 16.288L86.3308 24.998C86.3308 25.5354 86.6601 25.9817 87.3188 26.337C87.9775 26.6924 89.0348 26.87 90.4908 26.87L100.267 26.87Z" fill-rule="evenodd"/>
<path clip-path="url(#TextBounds)" d="M112.981 29.86C108.075 29.86 105.623 28.352 105.623 25.336L105.623 23.958C105.623 20.942 108.075 19.434 112.981 19.434L124.109 19.434L124.109 19.408C124.109 18.9054 123.784 18.511 123.134 18.225C122.484 17.939 121.422 17.796 119.949 17.796L117.505 17.796C117.106 17.796 116.846 17.6877 116.725 17.471C116.603 17.2544 116.543 16.9294 116.543 16.496C116.543 16.0454 116.603 15.7117 116.725 15.495C116.846 15.2784 117.106 15.17 117.505 15.17L120.053 15.17C124.958 15.17 127.411 16.678 127.411 19.694L127.411 25.336C127.411 28.352 124.958 29.86 120.053 29.86L112.981 29.86ZM119.949 27.234C121.405 27.234 122.462 27.0477 123.121 26.675C123.779 26.3024 124.109 25.856 124.109 25.336L124.109 21.956L113.085 21.956C111.629 21.956 110.571 22.138 109.913 22.502C109.254 22.866 108.925 23.3167 108.925 23.854L108.925 25.336C108.925 25.856 109.254 26.3024 109.913 26.675C110.571 27.0477 111.629 27.234 113.085 27.234L119.949 27.234Z" fill-rule="evenodd"/>
<path clip-path="url(#TextBounds)" d="M150.083 13.818L150.083 28.742C150.083 29.2447 149.935 29.574 149.641 29.73C149.346 29.886 148.913 29.964 148.341 29.964C147.786 29.964 147.361 29.886 147.067 29.73C146.772 29.574 146.625 29.2447 146.625 28.742L146.625 13.818L138.799 13.818C138.383 13.818 138.11 13.701 137.98 13.467C137.85 13.233 137.785 12.882 137.785 12.414C137.785 11.946 137.85 11.595 137.98 11.361C138.11 11.127 138.383 11.01 138.799 11.01L157.935 11.01C158.351 11.01 158.624 11.127 158.754 11.361C158.884 11.595 158.949 11.946 158.949 12.414C158.949 12.882 158.884 13.233 158.754 13.467C158.624 13.701 158.351 13.818 157.935 13.818L150.083 13.818Z" fill-rule="evenodd"/>
<path clip-path="url(#TextBounds)" d="M163.785 28.742C163.785 29.2447 163.646 29.574 163.369 29.73C163.091 29.886 162.675 29.964 162.121 29.964C161.566 29.964 161.154 29.886 160.886 29.73C160.617 29.574 160.483 29.2447 160.483 28.742L160.483 16.47C160.483 15.9674 160.617 15.638 160.886 15.482C161.154 15.326 161.566 15.248 162.121 15.248C162.675 15.248 163.091 15.326 163.369 15.482C163.646 15.638 163.785 15.9674 163.785 16.47L163.785 28.742ZM160.067 12.518C160.067 11.9634 160.227 11.556 160.548 11.296C160.868 11.036 161.393 10.906 162.121 10.906C162.849 10.906 163.373 11.036 163.694 11.296C164.014 11.556 164.175 11.9634 164.175 12.518C164.175 13.0727 164.014 13.48 163.694 13.74C163.373 14 162.849 14.13 162.121 14.13C161.393 14.13 160.868 14 160.548 13.74C160.227 13.48 160.067 13.0727 160.067 12.518Z" fill-rule="evenodd"/>
<path clip-path="url(#TextBounds)" d="M169.531 20.968L180.191 15.352C180.416 15.2307 180.672 15.1527 180.958 15.118C181.244 15.0834 181.655 15.066 182.193 15.066C182.539 15.066 182.838 15.144 183.09 15.3C183.341 15.456 183.467 15.6987 183.467 16.028C183.467 16.2707 183.397 16.4614 183.259 16.6C183.12 16.7387 182.947 16.86 182.739 16.964L172.287 22.45L182.921 27.832C183.423 28.092 183.675 28.456 183.675 28.924C183.675 29.3054 183.523 29.574 183.22 29.73C182.916 29.886 182.461 29.964 181.855 29.964C181.3 29.964 180.862 29.9207 180.542 29.834C180.221 29.7474 179.991 29.6607 179.853 29.574L169.531 24.114L169.531 28.742C169.531 29.2447 169.392 29.574 169.115 29.73C168.837 29.886 168.421 29.964 167.867 29.964C167.312 29.964 166.9 29.886 166.632 29.73C166.363 29.574 166.229 29.2447 166.229 28.742L166.229 12.128C166.229 11.6254 166.363 11.296 166.632 11.14C166.9 10.984 167.312 10.906 167.867 10.906C168.421 10.906 168.837 10.984 169.115 11.14C169.392 11.296 169.531 11.6254 169.531 12.128L169.531 20.968Z" fill-rule="evenodd"/>
<path clip-path="url(#TextBounds)" d="M188.459 24.01L188.459 25.336C188.459 25.856 188.788 26.3024 189.447 26.675C190.105 27.0477 191.163 27.234 192.619 27.234L195.609 27.234C196.007 27.234 196.263 27.3424 196.376 27.559C196.488 27.7757 196.545 28.1007 196.545 28.534C196.545 28.9674 196.488 29.2967 196.376 29.522C196.263 29.7474 196.007 29.86 195.609 29.86L192.515 29.86C187.609 29.86 185.157 28.352 185.157 25.336L185.157 19.694C185.157 16.678 187.609 15.17 192.515 15.17L198.521 15.17C201.121 15.17 202.997 15.5427 204.15 16.288C205.302 17.0334 205.879 18.1687 205.879 19.694L205.879 22.684C205.879 23.1867 205.783 23.5334 205.593 23.724C205.402 23.9147 204.977 24.01 204.319 24.01L188.459 24.01ZM188.459 21.436L202.577 21.436L202.577 19.694C202.577 19.0874 202.252 18.6194 201.602 18.29C200.952 17.9607 199.89 17.796 198.417 17.796L192.619 17.796C191.163 17.796 190.105 17.978 189.447 18.342C188.788 18.706 188.459 19.1567 188.459 19.694L188.459 21.436Z" fill-rule="evenodd"/>
<path clip-path="url(#TextBounds)" d="M209.389 15.17L209.389 12.128C209.389 11.6254 209.523 11.296 209.792 11.14C210.06 10.984 210.472 10.906 211.027 10.906C211.581 10.906 211.997 10.984 212.275 11.14C212.552 11.296 212.691 11.6254 212.691 12.128L212.691 15.17L218.177 15.17C218.575 15.17 218.831 15.2827 218.944 15.508C219.056 15.7334 219.113 16.0627 219.113 16.496C219.113 16.9294 219.056 17.2544 218.944 17.471C218.831 17.6877 218.575 17.796 218.177 17.796L212.691 17.796L212.691 28.742C212.691 29.2447 212.552 29.574 212.275 29.73C211.997 29.886 211.581 29.964 211.027 29.964C210.472 29.964 210.06 29.886 209.792 29.73C209.523 29.574 209.389 29.2447 209.389 28.742L209.389 17.796L207.907 17.796C207.508 17.796 207.252 17.6877 207.14 17.471C207.027 17.2544 206.971 16.9294 206.971 16.496C206.971 16.0627 207.027 15.7334 207.14 15.508C207.252 15.2827 207.508 15.17 207.907 15.17L209.389 15.17Z" fill-rule="evenodd"/>
</g>
</g>
</svg>
